/* XPM */
static char *_d78f1f17d53442784ef7a51041b8cf0[] = {
/* columns rows colors chars-per-pixel */
"32 32 205 2 ",
"   c #344032",
".  c #194A4E",
"X  c #1D5449",
"o  c #3E4943",
"O  c #275D4F",
"+  c #355949",
"@  c #2D5354",
"#  c #117D4C",
"$  c #1A7357",
"%  c #217A4C",
"&  c #307E40",
"*  c #24665C",
"=  c #1E5F63",
"-  c #1C7566",
";  c #276363",
":  c #3B7C63",
">  c #4A5B46",
",  c #4C6E5D",
"<  c #5E6D5C",
"1  c #546449",
"2  c #6A6F58",
"3  c #7B7253",
"4  c #456D6F",
"5  c #5F7372",
"6  c #0D845C",
"7  c #13845E",
"8  c #32825D",
"9  c #38994C",
"0  c #3CA35A",
"q  c #1F8A65",
"w  c #1A8968",
"e  c #258C67",
"r  c #21916D",
"t  c #38AD62",
"y  c #36B462",
"u  c #4C8B58",
"i  c #558A58",
"p  c #589A5A",
"a  c #748F5B",
"s  c #74915B",
"d  c #44AD58",
"f  c #4DBB55",
"g  c #4BB45D",
"h  c #4AB752",
"j  c #52B75C",
"k  c #54BB5B",
"l  c #5ABB58",
"z  c #4AAA46",
"x  c #62B752",
"c  c #4A8360",
"v  c #508D64",
"b  c #5B9077",
"n  c #74896B",
"m  c #698678",
"M  c #768A71",
"N  c #79956E",
"B  c #5AB66B",
"V  c #58BC65",
"C  c #5DA273",
"Z  c #45A46A",
"A  c #67AF65",
"S  c #67B966",
"D  c #57C35D",
"F  c #52C361",
"G  c #5EC66F",
"H  c #5DC274",
"J  c #64C46D",
"K  c #70CD6A",
"L  c #868451",
"P  c #9C8C5B",
"I  c #97985C",
"U  c #A7A95E",
"Y  c #899469",
"T  c #949E65",
"R  c #98996C",
"E  c #889878",
"W  c #979D77",
"Q  c #918A66",
"!  c #A69D66",
"~  c #B69C69",
"^  c #A39B7B",
"/  c #8EAE62",
"(  c #95A665",
")  c #85A574",
"_  c #88AE7F",
"`  c #9FA974",
"'  c #8BB47A",
"]  c #ADA16C",
"[  c #B3A165",
"{  c #B4A36B",
"}  c #B4AD69",
"|  c #A7A372",
" . c #B6AD74",
".. c #B7A877",
"X. c #BFB377",
"o. c #CCAA5C",
"O. c #CEA75A",
"+. c #D3AB5F",
"@. c #C9B35E",
"#. c #CDA663",
"$. c #CEAB64",
"%. c #CCA46B",
"&. c #CDAC6B",
"*. c #C7A968",
"=. c #D1A763",
"-. c #D3AC64",
";. c #D9AC64",
":. c #D4A669",
">. c #D4AD6B",
",. c #DAAD6B",
"<. c #D8A76A",
"1. c #CDB164",
"2. c #CEB16B",
"3. c #C7B36C",
"4. c #D4B165",
"5. c #DAB465",
"6. c #D5B16E",
"7. c #D3B26B",
"8. c #D9B16A",
"9. c #D9B06D",
"0. c #D9B26C",
"q. c #C1A774",
"w. c #C4AC74",
"e. c #CDAE76",
"r. c #CBAA7B",
"t. c #D4AE71",
"y. c #DBAD72",
"u. c #D3AC78",
"i. c #CEB474",
"p. c #CBB47B",
"a. c #C5B777",
"s. c #D5B271",
"d. c #D4B372",
"f. c #DBB273",
"g. c #D3B37A",
"h. c #D8BA76",
"j. c #E0AE73",
"k. c #90D479",
"l. c #84E179",
"z. c #408E80",
"x. c #5E8280",
"c. c #629E84",
"v. c #5BAE82",
"b. c #5DB680",
"n. c #6FA888",
"m. c #68BB85",
"M. c #6CA793",
"N. c #6CA39B",
"B. c #77A09A",
"V. c #79B68C",
"C. c #7DC480",
"Z. c #7ADB99",
"A. c #87B885",
"S. c #9BB183",
"D. c #81BA91",
"F. c #98B096",
"G. c #A6A088",
"H. c #B5A981",
"J. c #A5BF90",
"K. c #CCAC83",
"L. c #C7B687",
"P. c #D0BB82",
"I. c #8ED48B",
"U. c #8CD584",
"Y. c #93D887",
"T. c #96D686",
"R. c #8DCD9B",
"E. c #84DA9E",
"W. c #88C989",
"Q. c #AAC888",
"!. c #B4CC82",
"~. c #B3D19F",
"^. c #9AE990",
"/. c #A1E78B",
"(. c #A6E79B",
"). c #B4E795",
"_. c #84CAA5",
"`. c #88DBA3",
"'. c #98C5A4",
"]. c #A2C9AC",
"[. c #A7D7AA",
"{. c #A2CCBB",
"}. c #A0DDB3",
"|. c #83E6A4",
" X c #AFEFA5",
".X c #B9FFAD",
"XX c #A9E7B2",
"oX c #B8F6BD",
"OX c #B6EAB9",
"+X c #C0F5AD",
"@X c #D9F9AE",
"#X c #C0ECB7",
"$X c #C3FFB5",
"%X c #CBFDBA",
"&X c #D7FEBD",
"*X c #D5E9AA",
"=X c #B0C7CF",
"-X c #BFFFCD",
";X c #B4ECD3",
":X c #BCDDE4",
">X c #CBF6C1",
",X c #D3FFC2",
"<X c #C3E2E4",
"1X c #CCF0E2",
"2X c #DAFCFB",
/* pixels */
"<.,.8.7.1.1.2.s.8.8.9.,.;.;.<.:.#.=.;.;.,.8.2.i.7.2.i.d.f.9.8.-.",
"<.<.>.1.1.1.7.s.>.>.>.>.-.-.<.:.$.>.>.;.>.>.7.d.d.2.2.s.9.8.>.=.",
"$.=.$.-.-.-.>.>.f.t.s.7.2.$.$.$.#.#.=.=.>.>.6.d.d.2.4.5.8.,.>.:.",
"&.&.$.-.-.-.=.>.y.>.&.2.$.$.-.$.>.>.$.o.>.8.>.>.s.7.4.5.4.>.>.>.",
">.>.>.;.;.;.-.>.>.>.&.&.$.=.+.+.>.>.$.$.+.-.=.=.9.>.>.6.7.7.7.1.",
">.>.>.>.,.,.>.8.9.>.>.6.>.;.-.-.=.>.&.$.=.+.=.;.;.-.>.>.&.1.1.1.",
";.-.-.>.t.t.>.9.>.<.6.6.7.&.2.>.>.>.>.>.>.;.=.-.-.+.=.-.1.&.2.2.",
";.;.>.7.t.>.>.,.f.s.d.i.X.{ ] ] { [ ~ { w.i.>.$.-.+.-.;.&.&.>.&.",
"6.s.&.7.2.7.,.,.>.h.a.| W n M n a s N E Q | p.d.$.8.,.,.d.&.f.8.",
"s.&.7.$.7.4.>.h.p.! ( ) i u c v u p A.[.J.Y L ! p.*.y.j.f.6.6.$.",
"f.-.8.o.1.$.p...Y ) i & 9 d g g j k l ^.).Q.S.Y R K.u.y.8.0.7.6.",
">.8.4.4.o.*.L.2 > '._.b.H V f f h l z K %X>X].m > ^ K.>.0.4.4.0.",
"8.9.4.4.+.g.G.o 5 2XN.M.R.I.I.U.Y.Y.Y.oX[.b @ @ @ < L.t.4.4.5.4.",
"6.6.-.+.-.w.2 @ =X:X. O [.,X$X$X.X.X(.XXb X ; = ; + Q g.*.1.5.;.",
">.>.s.-.,.~ > 4 <Xx.X n.%X)./.l.K D h V E.8 - - * , 3 r.%.=.#.=.",
">.%.>.>.,.q.E {.1X+ : }.+Xk.x l f f F g Z.v.$ z.M.F...r.>.>.$.>.",
"$.=.;.;.<.g.H.Y A.D.V.-XW.A S V V G V B m._.N.B.< W p.>.>.>.$.-.",
"4.o.+.;.-.d.p. .a A.OXoX`.E.|.Z.|.Z.|.`._.;Xm   ^ L.i.$.>.>.-.8.",
"6.$.;.4.1.1.7.i.X.T ~.XX% e q r w r 7 e : {.1 ^ P.d.&.&.7.6.>.,.",
"&.>.9.8.1.@.4.-.d.[ T #Xm.# q w 6 7 q $ c.N R P.d.$.%.2.7.7.y.,.",
"t.t.f.>.2.7.8.;.>.i.} (  XB 0 t y t Z C _ ` a.d.>.=.>.7.7.7.9.9.",
"t.t.>.d.s.f.,.,.#.>.3.U / T.S J k j C.' ( a.1.0.9.>.>.>.;.4.8.4.",
";.;.>.>.>.y.,.>.>.&.&.i. .T &X(.k./.Q.I a.7.0.7.d.t.,.,.,.,.>.>.",
"-.8.-.#.:.y.y.f.7.2.>.&.g...| *X@X!.I w.>.;.0.7.d.d.>.;.;.;.>.d.",
"-.-.=.>.>.,.,.0.;.;.=.>.t.e.q.{ L.P p.t.>.f.6.d.d.d.d.>.;.;.s.t.",
"-.-.=.$.>.>.>.8.;.;.=.-.>.>.&.%.~ r.t.#.f.9.>.d.d.d.d.7.4.4.t.t.",
"+.4.-.$.7.2.2.7.;.;.-.$.$.4.-.>.%.f.$.$.h.7.7.7.7.7.7.7.7.7.7.7.",
";.8.4.7.7.2.3.7.8.,.4.1.$.-.;.;.f.>.$.7.1.7.d.7.7.7.7.7.7.7.4.4.",
"y.y.s.s.s.7.3.2.6.6.7.7.>.=.$.$.$.>.>.&.*.d.7.h.7.4.4.7.s.7.4.1.",
"y.y.s.s.9.>.2.7.d.s.d.s.>.>.$.$.$.>.%.>.7.s.>.f.-.-.4.8.s.s.7.$.",
">.7.7.8.8.;.-.9.9.f.s.s.>.;.$.$.4.$.#.9.s.t.f.>.>.>.7.7.6.s.>.>.",
"2.7.7.4.5.;.;.0.,.,.s.s.,.;.=.=.O.-.4.$.>.f.f.y.,.>.7.7.6.9.y.,."
};
