/* XPM */
static char *_f471c9df7994b569fe4b3f64967757d[] = {
/* columns rows colors chars-per-pixel */
"32 32 78 1 ",
"  c #D5B16D",
". c #D5AF6A",
"X c #D6B26F",
"o c #D4B06C",
"O c #D6B26C",
"+ c #D4AE69",
"@ c #D3AD65",
"# c #D3AE6B",
"$ c #D3AD69",
"% c #D6B169",
"& c #D2AC68",
"* c #D3AF6B",
"= c #D5B06C",
"- c #D5B069",
"; c #D2AA67",
": c #D4AF66",
"> c #25252D",
", c #D4AD69",
"< c #D1A963",
"1 c #D0A761",
"2 c #020203",
"3 c #696973",
"4 c #1D1E21",
"5 c #D3AB62",
"6 c #D6B46E",
"7 c #0E0D0D",
"8 c #414147",
"9 c #D7B771",
"0 c #C7B78B",
"q c #38383F",
"w c #B1955D",
"e c #333339",
"r c #181613",
"t c #4E4F56",
"y c #A1B2B2",
"u c #342D1F",
"i c #BBBCA6",
"p c #5E5E67",
"a c #685637",
"s c #C1A063",
"d c #5B5A5E",
"f c #D7985F",
"g c #47464E",
"h c #D1A360",
"j c #897249",
"k c #7A7A7E",
"l c #47211B",
"z c #D7B974",
"x c #CEB57D",
"c c #705E3B",
"v c #737279",
"b c #8E9092",
"n c #A48851",
"m c #F9C23A",
"M c #AFC3C1",
"N c #B8C0B1",
"B c #59492F",
"V c #858589",
"C c #E07548",
"Z c #EF522A",
"A c #F26A21",
"S c #2A2A32",
"D c #796540",
"F c #9A999E",
"G c #DAAD57",
"H c #DC834D",
"J c #EA9C34",
"K c #503922",
"L c #AF7328",
"P c #FD9F12",
"I c #FA570F",
"U c #7A8480",
"Y c #D3A02C",
"T c #FA6011",
"R c #E98A34",
"E c #D2D2D2",
"W c #A85C34",
"Q c #B94129",
/* pixels */
"+. ..*+X6OO%@+&1h1@:--O o**OO%=+",
";&.++$.OO--%:@<1hh55-  X *=XX=+&",
";;&@@5@=OO%- @<<11<<+ooXXo=X  ,;",
";<&,$&@.o-+:@55<#;<;**#* ooXX .&",
";;$,&&.o=,+,5&$&#&<1fff$*#o  ==,",
",,++++*  ,+o&&$&@,fHRZC##&$$$.=+",
"$+++.=   ooX$&$$sjQAmPAfh;;$&@.+",
".o.++*=XXXXX*;&sallLmmTZC$&o..-.",
" ...o* XX  o$1nBlllKYPIZf##oo   ",
"%-.+**o Xo*#;jddqKWLJIAJ&&* OOO ",
"OO.$&&o**#.&wuVEy8nm5CHG1;$*OOOO",
"-O-+#$##$*wcr4kbkeuwG1h<;;;#O66O",
"%--$&&$*#n4744727r2ucs#;&;1;%996",
"O%.&&&$XsuevVdee>>422Bs#&;<15--%",
"@:.$+##oD8bFFbd8qee472jX$;$&<11<",
"55+.*#*suekvkVvdg88q>2c*o###&<11",
"55@*** D48dkv333pg8q>7rw6*#*.-55",
":5@@#o aep3333333t8e>r7w9 *@:%@%",
"-@::+* cqp333333pg8S>27wX$<@%%:%",
":OO%+# c>8tp3p33t8e>427w=&;+%%6%",
":-6Oo  wu>qgtgtt8e>>r2a&=#*=-%6%",
"..- o  &a7>qqqqqS>>42rn9Xo*++O .",
"+++#oo Xwr74>>>>>>472BoXX o#,=--",
".,&;$oXX;j72r4444722uw =XXo#+*  ",
"++;;&oX o#j7222222raw6X XXX=+*OO",
",+;;$**x0iibt4444>UNNix XXX *  o",
"***$$*o0iiMMyyyyyyMNi0    XOO  =",
"*==  o#  ox00000000x-O O  OO6=+$",
" X XX*#X66O%@+5+<55@$-O ..oOO +,",
"#=  X*#6z966+@<1<<5.- O #,.   .,",
",==XX+*9zz96:5<11<;+%   #,o OO=,",
",.= =+o9z96O:@@11&+@:OOX*#oOOX.."
};
