/* XPM */
static char *_bec61d3a0a04ecc8540d5cccaa2224b[] = {
/* columns rows colors chars-per-pixel */
"32 32 191 2 ",
"   c #0B0B05",
".  c #0D0D0D",
"X  c #0C070B",
"o  c #130D05",
"O  c #180B02",
"+  c #130D0B",
"@  c #0E1201",
"#  c #0E140D",
"$  c #141107",
"%  c #1C1303",
"&  c #13120D",
"*  c #1B150B",
"=  c #1B1E0D",
"-  c #0D0713",
";  c #0E0E12",
":  c #120F14",
">  c #150F1B",
",  c #0F1212",
"<  c #131214",
"1  c #1B1615",
"2  c #1D1A14",
"3  c #13121A",
"4  c #19161B",
"5  c #141913",
"6  c #261600",
"7  c #201907",
"8  c #2B1C02",
"9  c #25160F",
"0  c #231A0B",
"q  c #331D06",
"w  c #221310",
"e  c #241B14",
"r  c #241E1C",
"t  c #301D12",
"y  c #1D2019",
"u  c #2C2205",
"i  c #2C210C",
"p  c #342405",
"a  c #362805",
"s  c #3E2C00",
"d  c #35220C",
"f  c #3B2B0B",
"g  c #3E3009",
"h  c #3B3304",
"j  c #2C2313",
"k  c #26211B",
"l  c #2B2419",
"z  c #322610",
"x  c #3C2110",
"c  c #332A13",
"v  c #392A14",
"b  c #30231B",
"n  c #36291A",
"m  c #3A2B1E",
"M  c #33351D",
"N  c #322924",
"B  c #382922",
"V  c #422C05",
"C  c #422C0B",
"Z  c #43310C",
"A  c #48370C",
"S  c #54390E",
"D  c #402A13",
"F  c #432E1D",
"G  c #403217",
"H  c #4A3015",
"J  c #573F27",
"K  c #796D5F",
"L  c #7B705E",
"P  c #7C7153",
"I  c #757168",
"U  c #7C786F",
"Y  c #7D7369",
"T  c #837F5C",
"R  c #8D7D5C",
"E  c #836D60",
"W  c #8D7C62",
"Q  c #87766A",
"!  c #857A6C",
"~  c #887C70",
"^  c #9E855D",
"/  c #A78A5C",
"(  c #AA8F5D",
")  c #A58C56",
"_  c #AC925F",
"`  c #818169",
"'  c #95836B",
"]  c #9E8B6B",
"[  c #8E8475",
"{  c #988B74",
"}  c #9E927A",
"|  c #A48961",
" . c #A88D62",
".. c #A79263",
"X. c #AD9863",
"o. c #AB9669",
"O. c #A29375",
"+. c #A39278",
"@. c #AB9C79",
"#. c #B49578",
"$. c #B29E79",
"%. c #B7A275",
"&. c #BDA574",
"*. c #BDAA74",
"=. c #B6A47B",
"-. c #BEA27A",
";. c #BDAA7D",
":. c #CBA554",
">. c #C4A65E",
",. c #CCA558",
"<. c #CEA95D",
"1. c #D2AC5C",
"2. c #D1B05A",
"3. c #C5A663",
"4. c #CBA664",
"5. c #CDAB64",
"6. c #C4A66B",
"7. c #CBA769",
"8. c #C4AA6D",
"9. c #CDAC6B",
"0. c #D0A767",
"q. c #D3AC65",
"w. c #D8AE62",
"e. c #D1A76B",
"r. c #D3AD6B",
"t. c #D8AF6E",
"y. c #CFB16B",
"u. c #D5B164",
"i. c #DAB266",
"p. c #D5B26C",
"a. c #DAB36B",
"s. c #DDBA6E",
"d. c #C4A672",
"f. c #C5AC74",
"g. c #CCAD74",
"h. c #C3AB7C",
"j. c #CBAD7B",
"k. c #D2AD72",
"l. c #DAAF71",
"z. c #C7B273",
"x. c #CDB373",
"c. c #C4B17E",
"v. c #CCB27B",
"b. c #CDBA7E",
"n. c #D4B273",
"m. c #DAB473",
"M. c #DBB975",
"N. c #D1B27F",
"B. c #D3B37A",
"V. c #D4BA7B",
"C. c #DCB97B",
"Z. c #9B9982",
"A. c #AB9D84",
"S. c #A59B8E",
"D. c #AD9D8E",
"F. c #B09F81",
"G. c #A5A083",
"H. c #AAA087",
"J. c #AAA28B",
"K. c #B4A682",
"L. c #BCA583",
"P. c #B7AA86",
"I. c #BCAA83",
"U. c #B8A78D",
"Y. c #B6AB8F",
"T. c #BAAC8B",
"R. c #B4A28A",
"E. c #BFB185",
"W. c #BFB68D",
"Q. c #ADA399",
"!. c #B0A391",
"~. c #BEAD92",
"^. c #B8B594",
"/. c #C1A786",
"(. c #C4AB83",
"). c #CDAD82",
"_. c #C4AC8B",
"`. c #C9AD88",
"'. c #D0AF84",
"]. c #C3B183",
"[. c #CEB682",
"{. c #CCB383",
"}. c #CDBA86",
"|. c #C5B08C",
" X c #C8B48F",
".X c #D2B585",
"XX c #D0BA81",
"oX c #C0AF9B",
"OX c #C6B295",
"+X c #CFB497",
"@X c #C2B499",
/* pixels */
"r.r.p.p.r.q.r.n.p.m.r.p.1.2.p.7.e.r.q.i.i.q.r.m.p.q.n.n.m.n.q.u.",
"9.9.q.r.q.q.r.n.r.n.m.r.u.,.5.7.r.q.q.<.q.a.m.r.p.p.7.n.n.m.q.u.",
"5.5.q.q.q.q.r.p.m.n.y.n.m.9.5.r.7.4.<.:.i.p.r.M.r.9.p.r.M.r.q.,.",
"5.5.q.q.q.q.q.r.g.6.V.8./ ).n.7.g.k.5.u.<.p.k.g.V.m.n.M.r.p.r.q.",
"q.q.q.q.q.q.q.p.N.[.z.f.C #.j.9.N.j.9.>.y.6.j.'.j.d.g.n.n.n.m.r.",
"q.q.r.r.r.q.u.n.{.=.*.;.d x h.j.| `.f.8.x.f. .`.(.S 8.x.r.7.r.l.",
"u.q.r.r.r.r.p.B.|.d h W.D.t L.h.C $.h.h.c...Z L./.| h.g.n.9.p.q.",
"p.p.k.k.r.r.n.[.W j T ^.Q.B R.F.6 u T.T.@.a p U.+.] ;.&.g.9.p.r.",
"n.n.k.k.9.g.XXI.j * ` M I N K n O e Y l 7 % ~ S.m { f V ( x.k.p.",
"n.n.8.B.g.[.].{ *   = @ 5 & r o + + r + + & 2 k e n v =.{.g.M.p.",
"B.V.8.x.&.I.@X[ 2 & # & < < + + < < : ; 1 <   * U S.A.K.{.n.9.p.",
"B.g.V.8.s W [ e & < & < < < < < , ; 3 ; < . < 5 2 k c Z X.9.M.p.",
"k.V.v.h.f % e & & < < < : 3 < < 3 < 3 3 ; < 4 ; X e L @.&.n.n.r.",
"r.9.f.(.O.7 $ < < . < < 4 ; < # < < , < < , < 4 4 + % C ) n.r.m.",
"i.9.( Z z % $ & 3 3 < < : ; & 5 < & & & 2 & . ; 3 + v =.f.3.r.4.",
":.p.j.L.A.l o & : 3 < . 4 < & # & < < *   * < < - r } =.f.9.r.0.",
"1.<.9..XOX! e   < < < < < & $ & < < < < & & & < , & c g _ n.9.r.",
"1.q.3.f.I.8 o 1 < , , , < < & & < < < < & & < < < y Z.K.&.B.k.r.",
"r.q.y.x.;.f % & < , , , < < < < < < # # < < 3 < . & l ' {.B.r.p.",
"r.n.n.v.;.A.0 + & , , < 3 3 < < < < # # < < 3 < 3 5 o G h.n.n.a.",
"k.k..X^ D Q e & & & < < 3 3 < < < & # # < < > > 3 . % O.{.n.r.p.",
"g.B..X| q t e o & & < < 3 3 < < & & # # & < > > 3 . j Z / n.C.5.",
"r.9.9.v.;.~.!.l & & < < < < < & & & , , & & : > - r H.;.g.9.9.p.",
"q.p.5.9.v. XoX! * & & < < < < & & & , , $ o + + 1 k T.{.n.7.M.p.",
"q.u.5.6.j._.' m 0 e $ o & . < & 2 1 < 5 + 0 0 c ! i R {.5.5.M.p.",
"w.u.5.7.j.(.H W T.Y.i 0 * k 2 e ! [ e + b !.P.E.T.8 V h.y.s.7.n.",
"q.q.r.r.n.j.d.}.}.E.P.P i J.G.u P.~.9 w Q OX}.b.].o.&.v.n.q.p.q.",
"t.r.m.5.p.M.9.x.x.b.c.A a T.T.Z %.|.F E J /.V.x.z.v.N.g.C.q.q.u.",
"p.a.q.s.a.r.8.m.x.x.z.d.h.`._./.j.d./.+X-.f.n.p.n.x.x.m.r.m.r.5.",
"p.p.p.u.r.r.k.m.m.m.p.m.g.{.)..X9.7.N.j.B.V.m.p.5.5.p.r.m.m.p.5.",
"y.5.p.M.p.r.m.r.q.a.p.p.n.9.r.4.q.p.<.p.9.r.k.r.q.p.q.r.l.t.5.p.",
"y.p.p.9.m.r.r.a.a.w.a.r.r.q.1.1.q.<.2.u.q.r.m.m.p.u.r.i.m.r.m.7."
};
