/* XPM */
static char *_de7d1c3db904a4eb90017cb4387b2fd[] = {
/* columns rows colors chars-per-pixel */
"32 32 232 2 ",
"   c #2C0C01",
".  c #280500",
"X  c #330C03",
"o  c #3B0A01",
"O  c #370604",
"+  c #2D1207",
"@  c #3B150B",
"#  c #361409",
"$  c #3D1C13",
"%  c #3A1814",
"&  c #2A0D1F",
"*  c #3E2B10",
"=  c #0A202D",
"-  c #2C2437",
";  c #420A02",
":  c #4C0A02",
">  c #520700",
",  c #421301",
"<  c #431A0B",
"1  c #491607",
"2  c #5B1C00",
"3  c #581806",
"4  c #431C13",
"5  c #4B1C13",
"6  c #461B19",
"7  c #511D13",
"8  c #531E1B",
"9  c #671A08",
"0  c #781D04",
"q  c #631510",
"w  c #6C1817",
"e  c #4A2C01",
"r  c #472604",
"t  c #5C2301",
"y  c #562808",
"u  c #563A08",
"i  c #432114",
"p  c #4C2114",
"a  c #4A221B",
"s  c #542515",
"d  c #5C2614",
"f  c #5A261A",
"g  c #4F360E",
"h  c #642408",
"j  c #662615",
"k  c #6A3818",
"l  c #763918",
"z  c #6D300E",
"x  c #491F20",
"c  c #572523",
"v  c #472120",
"b  c #64292A",
"n  c #6B3524",
"m  c #743B23",
"M  c #743A29",
"N  c #753938",
"B  c #6C3339",
"V  c #305220",
"C  c #3E7525",
"Z  c #2E7339",
"A  c #33683D",
"S  c #4E5911",
"D  c #49731C",
"F  c #527A1A",
"G  c #4B681C",
"H  c #5B422E",
"J  c #754225",
"K  c #6B4B36",
"L  c #75533A",
"P  c #6E5429",
"I  c #4C6A21",
"U  c #52722C",
"Y  c #6F491A",
"T  c #001748",
"R  c #271642",
"E  c #08324F",
"W  c #2B235B",
"Q  c #33294F",
"!  c #30326C",
"~  c #4E3659",
"^  c #4F364C",
"/  c #7A3842",
"(  c #0D4053",
")  c #3A6844",
"_  c #1E4662",
"`  c #32436D",
"'  c #37574C",
"]  c #59455E",
"[  c #765741",
"{  c #624A4A",
"}  c #4B704B",
"|  c #46427F",
" . c #775F75",
".. c #6B566D",
"X. c #746478",
"o. c #8D1D00",
"O. c #882D11",
"+. c #853922",
"@. c #923A22",
"#. c #A73D28",
"$. c #99442A",
"%. c #874C38",
"&. c #955739",
"*. c #894E30",
"=. c #A84732",
"-. c #AA5137",
";. c #96642B",
":. c #9A6738",
">. c #8B6530",
",. c #A36839",
"<. c #8E5341",
"1. c #985743",
"2. c #8C4D4D",
"3. c #B45D43",
"4. c #9B6B46",
"5. c #A56D4B",
"6. c #A46847",
"7. c #B66F4A",
"8. c #A87644",
"9. c #B4764D",
"0. c #A96A57",
"q. c #AA7454",
"w. c #B87A5A",
"e. c #B66C51",
"r. c #D75F46",
"t. c #D06B53",
"y. c #FC6E54",
"u. c #E4765B",
"i. c #ED795F",
"p. c #FE7354",
"a. c #FE755A",
"s. c #FE7B5C",
"d. c #F27758",
"f. c #EF6C51",
"g. c #D37F65",
"h. c #E77E68",
"j. c #F67F64",
"k. c #5E8428",
"l. c #58943E",
"z. c #689F48",
"x. c #6B9953",
"c. c #65A844",
"v. c #69B14C",
"b. c #7CB663",
"n. c #72C05A",
"m. c #76C260",
"M. c #B5885F",
"N. c #BB9A71",
"B. c #B98E68",
"V. c #F7805E",
"C. c #CA966D",
"Z. c #C69773",
"A. c #DD9C7A",
"S. c #DA9876",
"D. c #D18A6A",
"F. c #E98166",
"G. c #F28569",
"H. c #E88A73",
"J. c #E49978",
"K. c #F49A76",
"L. c #CAAA69",
"P. c #D3AD6D",
"I. c #D7A968",
"U. c #CEB16B",
"Y. c #D3B36C",
"T. c #DAB36C",
"R. c #D7B164",
"E. c #CBA87A",
"W. c #D3AE71",
"Q. c #D7A678",
"!. c #CDB373",
"~. c #D5B473",
"^. c #DCB473",
"/. c #DCB37B",
"(. c #D1B77E",
"). c #F9A27D",
"_. c #E5B67A",
"`. c #E7B67B",
"'. c #E4AB7E",
"]. c #2A3586",
"[. c #3B498E",
"{. c #525A94",
"}. c #6B759A",
"|. c #616D95",
" X c #5B79AC",
".X c #5F78B2",
"XX c #7378A3",
"oX c #6078B4",
"OX c #D09D88",
"+X c #C8A589",
"@X c #D8A783",
"#X c #DAB285",
"$X c #D0B693",
"%X c #ECAC85",
"&X c #FBA785",
"*X c #EAB48D",
"=X c #F8B68A",
"-X c #EDB49B",
";X c #EDBA94",
":X c #F2BC95",
">X c #FEBB93",
",X c #F8B697",
"<X c #F1AE96",
"1X c #FFBCAB",
"2X c #FEC38D",
"3X c #E8C99A",
"4X c #FDC396",
"5X c #F3C69C",
"6X c #FEC39B",
"7X c #FDCA9D",
"8X c #F9CA96",
"9X c #FBD29B",
"0X c #FBC9A3",
"qX c #FFD5A5",
"wX c #FED4A4",
"eX c #FEDBA5",
"rX c #FED5AC",
"tX c #FEDBAB",
"yX c #F6D7A8",
"uX c #FDD5B2",
"iX c #FFDCB3",
"pX c #FEDBBC",
"aX c #F8D4BB",
"sX c #ECC7AC",
"dX c #FFE1AE",
"fX c #FFE1B2",
"gX c #F7D8C4",
"hX c #FFE4C3",
"jX c #FFE5CA",
"kX c #FFF3DB",
"lX c #FFF5D6",
"zX c #FFEED5",
/* pixels */
"+XK   # X   X +   + + X o o @ O X X o o o o o o #   ; ; O J L.!.",
"L # X @ @ @ # # % % @ @ p 5 5 6 5 5 5 5 7 7 7 5 p 5 5 8 3 , P !.",
"K   4 # @ 4 $ $ $ a a s f s s f f f f f d d d s p c b f d , >.(.",
"[   < @ 4 4 i i a 8 8 7 p k M m m m m m m m m m J n n M m ; 4./.",
"L . @ 4 4 4 i a c 8 f f d 5.@XA.A.J.A.A.J.J.A.A.Q.@X@X,X%Xh ,._.",
"[   @ 4 4 i a a 8 8 8 3 2 9.=X>X>X>X>X>X>X>X4X4X:X0X0XuX>Xh 8._.",
"[   # 4 i a a 5 c a 7 j &.S.>X4X7X7X7X7X7X7X9XwXwXwXrXiX*Xt 8./.",
"[   % 4 a 6 4 a 4 s d *.J.>X6XwXwXwXwXwXwXwXeXtXtXtXfXiX;Xt 8./.",
"L   $ 6 6 x 4 $ < 1 *.D.).>X4X:X5X5X5XtXrXwXtX9X8X3X3XtX:Xt 8._.",
"L   # $ x 4 i i p : @.F.K.>XQ.k k k *.5XfXeXeX:.k Y u N.:Xt 8.`.",
"L   4 6 6 4 i r 3 =.t.F.K.>X;XN.Z.Z.@X0XwXwX8X/.C.Z.N.3X:X2 ,.`.",
"[   @ 4 4 a < y $.t.i.G.K.=XrXjX+XM.Z.wXwXwX8XQ.C.Z.fXhX;Xh :.`.",
"L . < 5 < , h $.h.d.d.d.K.=XuXlX%.t l ;X6X4X4X&.2 m aXzX-X2 :.`.",
"[ X 4 < , 3 3.u.f.y.s.V.).>XrXlX4.h J *X>X=X4X:.j n gXkX-X2 :._.",
"K   $ < j 3.i.y.s.p.a.d.K.>XiXjX&.9 l %X=X=X=X*.2 k aXkX-X2 ;.T.",
"[ . < : 9 u.d.p.y.a.a.V.&X=X0XiXS.w.C.6X*X'.%XC.D.Z.aXjX-X2 ;.^.",
"L O +.@.=.u.a.p.p.p.a.s.&X2X4X5XwXrXuXhXpXsXuXrXtXdXyXiX:X2 ;.^.",
"*.: t.G.G.j.f.p.a.p.a.G.=X2X8X8XwXwXyXpXjXjXhXuXyXeXeXwX,X2 ;._.",
"1.> t.h.u.u.s.d.d.s.a.j.=X5X7XwXwXwXwXM.5.w.0.-XtXeX9XfX<X2 ,.`.",
"1.z 0 0 O.0 o.o.o.r.j.H.6XrXrXrXrXtXtX4X6X0X1XaXiXdXtXiX,X2 ,.`.",
"<.: 6.w.9.9.7.-.=.#.#.$.:.4.5.5.5.5.6.8.9.7.0.0.e.-.6.0.&.t 8._.",
"%.; ;XfXfXtX=X&XH.0 : y e * e e e r e e e u r y 9 +.> : h 9./.W.",
"%.1 #XtXtX7X,XK.F.0 y P S G U I G D D k.F F k.S :.D.w q C.P.Y.U.",
"<.; *XiX0XrX<XH.h.9 g U U D C C l.c.z.c.c.v.c.F >.g.w q Q.T.U.Y.",
"<.: -XpXuXuX,X&XH.h * } x.x.x.x.b.b.b.b.b.n.m.U >.J.q 9 I.R.Y.Y.",
"*.o &.q.0.0.0.2.2.v - ' } } ) A ) ) A A Z Z Z V k +.> h L.T.T.P.",
"8.z y y y p & R R W ! _ _ _ E E T T T E ( E E = + 1 d :./.P.P.Y.",
"^.W.(.#X#X+X~ W ! [.{.oX.X X X.X].].[. X X X X` ^ +X#X/./.~.~.U.",
"U.U.~.~.W.$X] W ! | {.XX}.}.}.}.! W ` |.}.}.XXQ { $XL.Y.~.~.L.U.",
"Y.~.!.~.Y.E.{ Q ~ ~ ]  . . .X. .~ ^ ^ ..X...|.^ H E.U.Y.Y.~.P.Y.",
"I.^.W.P.T.I.n c b c B / / N M N b b b N N B B c J E.~.L.P.~.T.I.",
"I.I./.W.R.I.l 3 9 q w q w w 9 9 q 9 9 9 q 3 j 3 k Q.W.~.~.P.T.I."
};
