/* XPM */
static char *_6c6a3db1ca24301c4163a4e43b7b128dmZPq0zw0OeBIlFy[] = {
/* columns rows colors chars-per-pixel */
"64 64 3 1 ",
"  c #D3AE69",
". c #D5B26D",
"X c #D1A964",
/* pixels */
"    ...  ..   ........   X   XXXXXXX       .......   ........  .",
"   ...   ..   .... ..... X    XXXXXX     .  ......   ..... ..   ",
"X X          .....  . .    X XXXXXXXX    .........  . .......  X",
"XXX          ..... .    .  XXXXXXXXXXXXX ... ......  ......     ",
"XX      X XX  ............ XXXXXXXXXXXXX  .  ......  ...... X XX",
"X XXX  X  XXX  ....... ..   XXXXXXXXXXXX     ...... ........   X",
"XXXXX X  X XX  .. ..   X XXXXXXXX XXXXXX  .  . ....  .......   X",
"XXXX            .        X X XXX. XXXXXX    X   .... ........  X",
"XXXXX     X    ..       X     X .  XXXXX   XXXX ..   .....  .. X",
"XXX     X X   ...      X XXX        XXXXXX XXXX .   ..... .... X",
"             ....  X  . X X    XX XX XXXX  XXX            . .. X",
"             .....    ..          XXXXXXXXX X     XXX  XX   ... ",
"  X       .... ....  ...  X X  X XXXXX X X  XXX   XXXX XX XX    ",
"       . ........... ...  X   XXXX XXXXXXXX X X . XXX .         ",
"  ...       .............  XX  XX   XXXXXX   X     XX .     ..  ",
"...          ........... . XXXXXX  XXX  X XXXX  XX  X .         ",
"..        .  ..........   XXXXXXXXXXXXXXXX  X         .  . .  ..",
".      . .  ...........  X XXXXXXXXXXX XX X    .       ... .....",
".     . .. ........  .   X XXXXXXXXXX XXXX    XX     . .........",
"....          .....      XXXXXXXXXXXXXXXX XX  XXXXXX .......... ",
".....   XXX  .  .      XXXXXX XXXXXXXXXXXXXXX XXXXX    ........ ",
"....      X ..       X   X XXXXXXXXXXXXXXXXXXXXXXXXX    ........",
".....          .     .  X  XXXXXXXXXXXXXXXXXXXXXXXXXX   ........",
"  ...            X     X X XXXXXXXXXXX XXXXXXXXX X XXX ........ ",
"  .  ..     X   X  .   XXXXXXXXXXXXXXXXXXXXXXXXX  XXXXX ........",
".. ..  XXXX    . . .   XXXX  XXXXX   XXXXXX . X X  XXXXX .......",
".....  X  X X . ....   XXX   XXXXXXX XXX  ... X  XX XXXXX ......",
"...     X      . ...  . X      XXXXXX XXX  ...    XXXXXXXX  X  .",
"X   .         .. ..    XX   X XXXXXX   XXXX  . . XXXX XX XXXXXXX",
"X             ....... XX   XXXX X XXX  XXX   .    X   .XXXXXXXXX",
"XXX       .  .......      XXX XX   X   XXXX   ...    .   XXXXXXX",
"XXXX    ..     ....     . XXX  XX    X . XXX   .  .       XXXXXX",
"XXX X  ..    . ..    XX .     XXXXXXXX .   . .....  X .. .. XXXX",
"XXXX X   ..  . ...          X   XXXXXX..   ........  .. X .  XXX",
"    XX    ...  .  . ...     X XXXXXXX . XX ........ ..  X. . X..",
".  X X    .  X  . .      .  XXXXX  X    X  ........      . .XX..",
".  XX       .     ... .    XXXXXX       ........... XX X ... X..",
".   ...       .    ....       XXX X      . ....... XXX  ...   ..",
"  .....  X .  .    .          XXXX     X .......   XXX   ...... ",
"  ......      ..    XX XX  X  XXXXXX     .......   XX    .......",
"   ..... ... .   XXX       X XXXXXXX   . .......      ..........",
"   ....  ..... XX XXXX  X   XXXXXXXXX.. ..........  .. .   .... ",
"   ...........   XXX XXX XXXXXXXXXXXX . ...........       ....  ",
" .    ...  ...      XX XX XXXXXXXX X XX  . ........       ....  ",
"        .  ...  XX     XXX  XXXXXXXXXXXX ..  ...... ...   ... . ",
"        .  .....         X  XXXXXXXXXXX   .  ........         . ",
"     XX   .. ....        X XXXXXXXXXX XX ..... ......        ...",
".    XXXX  ......       X X X X XXXXXXX X.. ......... .    .....",
"    XX XX  .....   X      X  . XXXXXXX   ...... ......      ....",
"   .XXXXX . .....     XX X     XX  XX   ................   .....",
"X   X XX ..  ...  .   XXXXXX  XXX    XX ................   .... ",
"    XXX X     ..      X X  XXXX X  X XX .... .......... .  ...  ",
" .     XX   . ....  X X      X  X XX    ..... ..................",
"   . .     . . ....         XX XX    X  ..... ... ............ .",
"   ... .....  .... . . X     X      X   .......... ........     ",
" ...  .....   ...  ...   X  X  .          .................     ",
"...........   ..........  . XX..XXX       ..................    ",
".......... X  ..........    XX  XXXXXX  X  .....      ......    ",
" ...........  ..........     XXXXXXXXX    ......   X  ......    ",
"    .......   ..........   XXXXXXXXXXX .........       ......  X",
"   . ......X ............ XXXXXXXXXXX    ..... ..    .........  ",
"  ........   ...........     XXXXXX X    .. ....     .. .....   ",
"   .  ... .  .............  .XXXXXX      .......     ........   ",
"    ....     ...........     XXXXXX     X ...... .   ........   "
};
