/* XPM */
static char *ba162e1ca9b74b6bed9a0dc2aacf2e0dnTx0aH80VGZm24N3[] = {
/* columns rows colors chars-per-pixel */
"64 64 126 2 ",
"   c #331F06",
".  c #372207",
"X  c #372209",
"o  c #3B250B",
"O  c #3E290E",
"+  c #3E2910",
"@  c #412B0F",
"#  c #432D13",
"$  c #463116",
"%  c #493316",
"&  c #463118",
"*  c #4A351B",
"=  c #4E391E",
"-  c #513B1E",
";  c #4F3A21",
":  c #523D22",
">  c #553F28",
",  c #564125",
"<  c #594426",
"1  c #574229",
"2  c #5B452B",
"3  c #5E492D",
"4  c #5D4732",
"5  c #5E4931",
"6  c #614B2E",
"7  c #614D32",
"8  c #624D32",
"9  c #634E33",
"0  c #624D31",
"q  c #644F30",
"w  c #644F32",
"e  c #614D34",
"r  c #624C34",
"t  c #634D35",
"y  c #634F34",
"u  c #624E35",
"i  c #644F34",
"p  c #644E36",
"a  c #654F37",
"s  c #624D32",
"d  c #635032",
"f  c #655033",
"g  c #645133",
"h  c #675332",
"j  c #655035",
"k  c #665134",
"l  c #655234",
"z  c #675235",
"x  c #665335",
"c  c #665136",
"v  c #665237",
"b  c #675237",
"n  c #675436",
"m  c #665135",
"M  c #685334",
"N  c #685336",
"B  c #695437",
"V  c #695336",
"C  c #6C5837",
"Z  c #665038",
"A  c #675139",
"S  c #665139",
"D  c #685338",
"F  c #68523A",
"G  c #69533B",
"H  c #685439",
"J  c #695439",
"K  c #6A5538",
"L  c #6B5639",
"P  c #6A553A",
"I  c #6B563B",
"U  c #6C573A",
"Y  c #6A543C",
"T  c #6B553D",
"R  c #6B573C",
"E  c #6A563D",
"W  c #6C573C",
"Q  c #6D573F",
"!  c #6A553A",
"~  c #6D5839",
"^  c #6D583B",
"/  c #6C583D",
"(  c #6D583D",
")  c #6E593C",
"_  c #6F5A3D",
"`  c #6E593E",
"'  c #6E5A3F",
"]  c #6F5A3F",
"[  c #6F5C3E",
"{  c #6E593D",
"}  c #705B3E",
"|  c #715C3F",
" . c #735E3F",
".. c #715B3E",
"X. c #6D5940",
"o. c #6E5840",
"O. c #6F5941",
"+. c #6F5B40",
"@. c #6E5941",
"#. c #705B40",
"$. c #705A42",
"%. c #715B43",
"&. c #715C41",
"*. c #725D40",
"=. c #715E40",
"-. c #735E41",
";. c #725F41",
":. c #725D42",
">. c #735E43",
",. c #745F42",
"<. c #735D45",
"1. c #745F44",
"2. c #725D42",
"3. c #756043",
"4. c #756045",
"5. c #766144",
"6. c #766146",
"7. c #756145",
"8. c #796445",
"9. c #796246",
"0. c #776149",
"q. c #766148",
"w. c #786348",
"e. c #7B6649",
"r. c #7A654A",
"t. c #79644A",
/* pixels */
": $ k < , k i 3 Z Z , _ J k i 2 : # k J J | : $ J : 2 W 5 2 i D , _ _ k q 2 = # k J ^ ^ , @ C < , U q 2 r Y < D J k 6 6 - o i +.",
"3 = U 6 : , 3 < % * O 2 i q 3 3 * : 6 _ w f 6 = 6 k = , 5 0 * # $ > q 0 3 3 = : k W k k 6 * f 6 : < 2 2 : # # < w 6 2 < = < r Y ",
"q : 2 q 0 = # = Y r 3 2 * 2 q * O 5.$.0 k f 6 = 2 q J $ # * 5 0 q , > 3 2 * $ _ D q 3 6 w - < w 6 % $ = 5 0 Z > = 6 6 = @ U +.r ",
"% # = q : D 2 3 %.Y 5._ * # : * * = 2 3 3 : = @ : 3 * J < i W <.J _ $ O < = $ = q 2 q < % # = 2 - f 3 < 0.+.D &.* # % = # * r 2 ",
"3 6 J O 3 &.k * 2 2 , : > : , k 5.# O : $ = 2 w B O 3 &.i $ 2 2 < < , = > k 5.$ O * # * < w q $ 3 ,.q * < 0 1 = : , < N r.* X : ",
"5.J J 3 , J 2 * % * $ , &.r.&._ J 3 < k * k _ } B 6 : q i # ; & O , ,.5.w.J D 0 : _ = k 5.^ _ 2 = U q $ % * # 3 1.} | ^ N 3 1 i ",
"k J N _ < % * 2 $.r , _ W q q q 3 , 3 J # < J N J J : ; % 2 Y W 2 J ^ w 3 2 2 , q i # , J J N _ 2 $ % 3 +.G : D J k 6 6 , < 5 Y ",
", N 3 q = = q : D Y : k J i 3 2 2 : : # $ : , N 3 6 , : 2 : Y k = _ 6 f 2 3 0 = : # * : > W 2 w = , 2 : a Z : Y k k , 6 3 = > # ",
": , 6 - 2 5.&.k ; i 2 , J 0 3 2 % Y q * i &.= < 3 : , _ 1.q : 0 2 , f 6 q 2 # W i * q &.: , 2 > 2 &.&.k ; r 2 : k 6 < < % U r % ",
"J < * O &.q i J < > , o $ : * $ i +.2 2 k k | , = $ U U k J 2 > , o $ = * $ _ J 2 < W k _ : : # J B 0 _ 2 > : # $ : = * 3 _ 1 5 ",
"J 3 < 3 = i 2 0 o # 2 : > 3 $ 2 +.r ; +.r J f 3 3 , = 3 2 2 O # : , : 2 = , Y i : Y k k J 0 2 2 - 3 3 2 + + 2 * : 3 $ - 3.q : Y ",
"2 < < | 2 = < : * : W &.&.3 : : Y 2 $ 3 Y 3 2 < < &.< , ; , $ : w.&._ 3 , : D 2 & 5 J q 2 : 3 J 2 = > , * : $.w.&.6 < - k 2 * 0 ",
"* , f 3 &.: * _ 2 ; i D # # , = 2 * 5 = = , : - k k [ = : k q * 0 q * & : * 0 ; 4 : : = - < 6 k ^ , : 3 r ; 2 D $ # % < 2 = < ; ",
"< 3 % - k &._ J r X & = : k &.k * r * + + # : d $ % n &._ _ 3 o = * % Y <.i * < ; + O $ < 6 = * w &._ $.5 o * * = k 8.w - 2 > o ",
"q = 3 3 = J &.J 1 o q = _ J _ W : & 2 5 5 : 6 = 6 k - k J U 1 o 4 > %.o.G +.< % 2 2 k : 2 = 2 3 , k k _ < + 2 , _ | N ^ - $ 1 0 ",
", f 3._ , 3 0 J : 5 &.W : W q i ; Y _ <.4.g 2 k &.J 2 3 r q : 2 <.a ; a D 0 ; D +.0._ D < q | ^ < 3 i k > 2 <.J > f f N = k &.$.",
"> 6 0 0 : 2 k 3 , < q , , k q 2 : k W J 2 q : 5 5 2 : 4 r 5 2 1 2 * # : 5 3 ; 2 3 3 6 2 : w 6 6 - 3 0 2 2 > j 6 - N q 3 ; q Y g ",
"# 2 w 2 % : , 3 * # 0 = O 3 3 3 * , D 3 3 0 # ; 2 > : 1 1 4 : > 1 5 Z 1 2 ; $ = 3 2 2 % # < w < - - < 0 * @ 2 * # 6 2 3 = 2 J 2 ",
": : < - , : : $ , i = 2 0 = > # o > r 3 3 > 2 r o # # 1 : : : * & Z J & * * i q * : , &.> : 6 : = = = * - ` - 2 0 : : # $ * , k ",
"$.: : 2 _ q k $ 3 &._ 1.q : 2 O J D * 3 * # * * : W 0.D +.r # r Y = * * , J J # : # 2 W W - * 2 _ _ J $ 6 ` 2.} 0 > 1 . Z J : 3 ",
"i < * k i k _ < W D k 2 : , 2 2 k W J O > 2 D > : J &.W i : r 5.1.k 0 $ , q : 3 W 1.> < k 0 ; 0 3 q _ , } j U 6 > * 3 2 J J q O ",
"s W > : : : : $ : J 3 2 < % * % , q : : $.r._ &.: = : * = * ; 3 q : , $ # O q _ J i k % 0 Y 2 > : : : $ > U 2 2 : - # * , k , = ",
"* : % . = < 2 = = * $ % , &.3.2 X : : : 2 2 2 D 3 * o , - : 6 * : * , _ D $ 3 _ k q 2 : * ; *   = , 2 : * $ : # 2 } &.2 o * = 1 ",
"0 q 0 < 2 5.&.&._ , $ 3 ,.W f | 2 = k < * = $ , } J , ,.&.,.&.J , < J U k D = 2 , < * % r 5 5 1 2 &.w._ $.2 o D } W J &.2 = J 2 ",
"&.U $.i , J 0 3 W J , &.J k q 6 , * > * q _ : % N < < ^ 3 6 < ^ 3 2 ^ f 0 J = * = o > Y +.Y +.Z , k i 2 N W 2 $.W i q 3 , & = = ",
"2 q 3 > * 2 3 , * % # 2 k 3 3 2 * * J &.D _ k , q q - < 6 , 6 % % = < 6 3 : < _ k : : ; r 5 5 > = 3 2 , : # # 2 i N 2 k % = Y &.",
": 2 : o # > # * f < < , - 3 N * # 5.W D k q J * q q 6 # - $ # , J : # & % O , J k _ 2 , * 3 : + # = # * s 2 2 : * 2 3 = # &.J k ",
"* % 0 k D J < 3 | U &.^ $ $ : * # = 3 3 2 < * $ * 3 - B O # } _ $.q > 2 _ q : : : : 3 J = * 2 D J J 2 3 $.W 1.$.* % : = $ : q 5 ",
"$ J J k k q k : 3 w 2 , = * - N &.* $ : $ : = 3 k $ 3 &.k = $.k 5 1 2 +.J &.k : # : : $ @ i 8.w 3 N w : 2 6 2 : * - 2 q +.$ X = ",
"% : q q < q J # $ % # :  .8.,.} J 2 % i = k 1._ J 2 : k J , , 2 ; * * J 2 q q # 3 5.k q - < 2 0 < k i $ % * # < 8.D 1._ _ q : q ",
"r # = = : > * , ,.3 - U } 6 6 6 q = k _ O < D J J _ 3 = $ * > # 2 Z * : 3 3 = : _ J D N U # * - > = * , $.D = $.D } 5 q 5 ; q _ ",
"k 2 k = * , , , B B - K N w 2 6 2 : : # $ : 3 k 3 0 : = = , * = J E Z 1 * ; * : J D i w w 2 w - $ 2 , : J U - U U 2 3 3 2 : : # ",
"1 2 _ 3 q &._ w = w , < B q 2 2 % D k # q ,.* 2 3 , : &.5._ 5 2 Y q q , : 3 _ - k f 3 3 3 > W 3 3 8.| 6 = 6 2 , k q 2 3 # _ i $ ",
"5 * 5 ; q B q ^ < < 3 o # , : * 2 <.2 , J k 3.= : # _ f i _ 1 * J q ; , 5.[ 6 : k 3 q 0 : : r : 3 f q _ 2 2 : # * : > * 3 J 2 2 ",
"* : Z : 3 k 2 3 @ O : * > < # : 1.5 : _ k N 6 k < 3 : w q = : & = = O = 2 n 2 - 2 w 2 3 : : 0 > 6 f 2 2 O # > * * < # : &.i : D ",
"3 <.q : = , : : $ , 5.&.<.0 < 1 i 0 % q &.3 3 : < _ : , , , D r $ : 3 1 $ : N N $ : 2 * > &.D , % < : < $ * 5.&.<.r , , q 3 * 3 ",
"Z Z * ; & $ ; Z 2 * 4 W & # : ; q * , : : = : , f B $.> % : q q 3 3 r 1 k , < 6 * , # * Y 2 * = * - = i 0 = D i * # * : 2 * 2 : ",
"5 ; ; 1 Z <.W +.5 # ; : % Z +.r % 3 : O O % - 3 * - q &._ 3 = > J 5 = 2 | k $ = N | J , 2 < : 1 J ^ J &.q o ; * % r 1.5 : 2 > O ",
"$ : <.r 1 Z W o.2 X < * +.W +.W , $ : q 3 = q : 2 3 , k J 5.: 0 J J , &.k _ = k &.k Z $.& % <.r 2 k $.W > + 2 : Y 0.D 1.: * ; 3 ",
"1 2 Y +.1 2 a i : 4 <.Z : +.i r : k _ &.W J , q &._ 2 0 3 D q , D 0 : k D k : W J J 5 _ 2 2 W W 2 2 i r < > r.Z > Z Z r ; 0 &.<.",
", 5 r 2 ; 5 0 2 : 0 2 * % : r 2 : q q , 2 k = q q 0 * 2 i q : 2 k 3 , i q q : r _ q 5 a : 5 r 2 > 2 r 5 1 1 5 & # 1 2 5 : 3 k , ",
"+ = 1 1 ; 1 5 2 1 > * 0 a ; 4 : # * 0 3 , * * 3 3 3 , : , 0 * O 3 # O 0 3 2 * i k q 4 2 # ; 2 > * , 2 0 2 : : 4 D : 5 * $ : < q ",
"2 5 # + * ; * : < # * D D : = # k , = 2 2 i : : 3 = * * : = < w * 2 J = : $ # * r 2 2 : 3 q + # * = * = * % * D D * : * 3 2 = : ",
"; * ; Y +.+.$.2 # 0 D ; : * ; Y k = * $ 2 _ $.: = 2 D _ k o 2 } } } 3 : , . Y r * r : # * * : r W $.1.2 # i D * : : * k J * : % ",
"3 , : _ _ Y D : i 1.$.i 1 $ 2 w - 2 J } : 3 D < ; r k q &.2 ^ k f k : , r 2 r <.Z # & 2 5 : 2 &.W J q , k &.W W , # 0 i < < q 3.",
"&._ ; = 2 1 % * > 5 i 3 , # @ O 6 U | f q * 0 $.1 : , * : $ , k 3 3 = * # * 4 r < % <.5.+.0.= * 2 = , * = 0 W 2 , $ # X 6 ,.| q ",
"q f 3 * o $ > 1 > * , % : _ f # q _ 3 6 k = & : ; X * < < * * - * # 3 J <.2 o * : 2 1 5 5 r , = O % ; > , = * $ : J N * 3 J w 6 ",
"# 3 _ k 2 _ 0.$.1.r : < J N k w : < 3 2 * $ i 2 2 : 3 1.} &._ = @ 3 W &.D +.< ; r 5 * = $ 2 +.J : ,.$.&.1.k , < J J N q - 2 3 < ",
"= # _ , < ^ 0 i 2 &.0 , &.k q J : $ % + < Y 1.J $.k 2 k k 3 J } , 3.U B q 3 < = : * 3 k , $ f 3 :  .6 6 2 } 6 2 } N 6 W - % * # ",
"J - 6 q - 2 i < 3 $ = : 2 0 0 = > +.Y * * : q q k , * 3 2 2 , # $ , f f 3 w * # J _ J ^ J , N 6 : 2 6 3 2 - - % 2 6 2 : < U i * ",
"f : 2 q q $ * * * , J : # $ % O 2 +.r Z r : = 3 ; # O > # * 2 2 < - : 2 2 : $ 8.J J k k w * < q 6 # * % * = B : # * * + , J i +.",
"* $ : 3 : 2 # # q W _ q : , k q % < : 2 i k = % 3 q D W , 2 &._ &.U = $ : $ # - q 2 3 < = % : 3 - 3 * O w | } w ; , Z q * , : : ",
": 3 2 $ < 8.2 , _ J 2 3 2 &.1._ D * # : * = * i _ k q k q : 5 q 2 2 = % , 3 _ % @ = * = : 2 < $ 3 3.3 - &.J < q 3 <.+.W r ; # : ",
"&.N | , 2 q &.= 2 2 , * $ k 2 3 Y # , &.Z , $ 3 q < 2 k k $ % % # , ^ &.3.N } < % k % 3 &.&._ , - B J , 2 2 , # $ k 5 2 Y * : w.",
"J _ k J : * = % 2 o , 3 * , 3 i * : &.J k &.q # = : , : = : J q = J $.i k q 3 , k W $ 2 J D J _ 2 = * * , # : J * : r 5 ; * <.Y ",
"2 k 6 k - = = : $ = J $.k : = = * > _ k i q k , q = % , : , _ Y : J k i 2 3 3 = : $ # > 2 k 3 q : * ; : & * Z _ k : * : * : +.k ",
"= 2 6 , : _ &.&.3 3 J q q : < 3 i : k J i 3 2 , 1.2 2 &.1.3 = q , 2 D q 3 0 # D q % 3 _ : , 3 , : J 0.&.5 q J r k , : 2 Y : r Z ",
"U : = # } B 0 J 2 * _ k = 2 $.1.k = _ 5 < q 2 = 3 , k D i _ 2 2 2 O = , , * 2 _ 3 > _ J k : < O _ J 3 _ : : k r : , <.<.3 : Z q ",
"J 6 < : 3 6 k 2 * = : = o , 3 q 2 = 3 3 q 3 * , q > 3 q 2 2 # # = $ * 3 O = w.0 : J k k W 0 2 , < q k < : # < = o * 0 i q = 2 k ",
"3 < 2 } : : 2 * k q $ : 3 : * , W i * 2 2 = < _ 0 , = 2 3 : & * 5.&.&.2 2 2 k i $ q J q 3 : 2 W = , < = 0 k = * 3 , # > J U # < ",
"= : B J q : % < _ 2 2 3 J > 0 , 2 q = = O * _ 0 : : # $ * 0 r ; k k > # = = 2 * 2 = < , : , i J &.: * , _ 3 * k J : k : < k * = ",
", 6 % - ^ ^ _ 2 = , W 3 = k _ q = = q _ W : 2 2 = : _ &.r W 5 # * : $ 0 $.q : 2 > # o O : 3 : : k _ _ , : : ^ 6 = 2 5.q * % N f ",
"3 = 2 < : &.k _ : 0 W J : _ J 1.% q 1.D _ k * % 1.2 < D +.<.1 + 2 * &.J _ $.* * : 2 3 * k > : , 2 U N } : 2 } N - 8.6 ,.- 6 } } ",
", 3 ,.,.: < k J 3 3 k 3 , i J 3 , N k k 3 _ , 2 D 1.2 2 Z a < : 5.k , D D q , q _ 5._ k > 0 1.&.: 6 N N 2 2 w w : w w 6 < N N w "
};
